<svg xmlns="http://www.w3.org/2000/svg" width="32" height="32" viewBox="0 0 32 32">
  <g fill="none" fill-rule="evenodd">
    <rect width="32" height="6" y="20" fill="#ECCE6D"/>
    <path fill-rule="nonzero" fill="#EBEBEB" d="M7.43800409,22.8235294 C9.43334409,22.8235294 10.9474137,22.3301019 11.9802129,21.3432468 C13.0130122,20.3563917 13.5294118,18.8761091 13.5294118,16.9023989 L13.5294118,16.9023989 L13.5294118,8 L3.60189268,8 L3.60189268,11.6851791 L8.61834606,11.6851791 L8.61834606,17.1922445 C8.61834606,17.7857378 8.48134208,18.2343082 8.20733412,18.537956 C7.93332616,18.8416037 7.53636592,18.9934275 7.01645338,18.9934275 C6.60895437,18.9934275 6.21550704,18.8761091 5.83611141,18.6414722 C5.45671578,18.4068354 5.0702943,18.047979 4.67684697,17.5649031 L4.67684697,17.5649031 L2,20.6703911 C2.60422268,21.3743017 3.37355271,21.9091357 4.30799011,22.2748932 C5.2424275,22.6406507 6.28576549,22.8235294 7.43800409,22.8235294 Z M20.2465473,22.8235294 L20.2465473,17.36 L24.9299233,17.36 L24.9299233,22.8235294 L30,22.8235294 L30,8 L24.9299233,8 L24.9299233,13.2517647 L20.2465473,13.2517647 L20.2465473,8 L15.1764706,8 L15.1764706,22.8235294 L20.2465473,22.8235294 Z"/>
  </g>
</svg>
